M48
; DRILL file {KiCad 9.0.6} date 2025-12-08T16:08:22+0100
; FORMAT={-:-/ absolute / metric / decimal}
; #@! TF.CreationDate,2025-12-08T16:08:22+01:00
; #@! TF.GenerationSoftware,Kicad,Pcbnew,9.0.6
; #@! TF.FileFunction,Plated,1,2,PTH
FMAT,2
METRIC
; #@! TA.AperFunction,Plated,PTH,ComponentDrill
T1C0.500
; #@! TA.AperFunction,Plated,PTH,ComponentDrill
T2C0.600
; #@! TA.AperFunction,Plated,PTH,ViaDrill
T3C0.800
; #@! TA.AperFunction,Plated,PTH,ComponentDrill
T4C0.800
; #@! TA.AperFunction,Plated,PTH,ComponentDrill
T5C0.900
; #@! TA.AperFunction,Plated,PTH,ComponentDrill
T6C0.990
; #@! TA.AperFunction,Plated,PTH,ComponentDrill
T7C1.020
; #@! TA.AperFunction,Plated,PTH,ComponentDrill
T8C1.200
; #@! TA.AperFunction,Plated,PTH,ComponentDrill
T9C1.300
; #@! TA.AperFunction,Plated,PTH,ComponentDrill
T10C1.500
; #@! TA.AperFunction,Plated,PTH,ComponentDrill
T11C1.600
%
G90
G05
T1
X200.0Y-92.255
X202.54Y-92.255
T2
X57.0Y-74.0
X117.0Y-94.7
X117.0Y-98.3
X153.0Y-101.19
X153.0Y-103.19
X162.0Y-102.5
X164.0Y-102.5
T3
X163.5Y-77.0
X163.5Y-85.0
X174.5Y-77.0
X174.5Y-85.0
X184.0Y-105.5
X192.0Y-105.5
T4
X122.5Y-108.69
X122.5Y-116.31
X127.0Y-99.68
X127.0Y-107.3
X131.9Y-94.29
X131.9Y-101.91
X132.5Y-113.5
X132.5Y-123.5
X138.19Y-95.19
X138.19Y-97.73
X138.19Y-100.27
X138.19Y-102.81
X138.5Y-113.5
X138.5Y-123.5
X145.81Y-95.19
X145.81Y-97.73
X145.81Y-100.27
X145.81Y-102.81
X151.0Y-107.0
X151.0Y-109.5
X158.5Y-106.75
X158.5Y-109.25
X158.5Y-113.5
X158.5Y-123.5
X163.0Y-113.19
X163.0Y-120.81
X167.0Y-113.19
X167.0Y-120.81
X171.0Y-93.5
X171.0Y-102.5
X171.5Y-113.19
X171.5Y-120.81
X173.5Y-93.5
X173.5Y-102.5
X175.5Y-111.0
X175.5Y-121.0
X179.0Y-76.34
X179.0Y-86.5
X182.34Y-93.5
X182.42Y-100.0
X182.5Y-76.0
X182.5Y-81.0
X185.0Y-76.0
X185.0Y-81.0
X186.77Y-122.5
X190.58Y-110.839
X190.58Y-113.339
X192.5Y-93.5
X192.58Y-100.0
X194.39Y-122.5
X201.5Y-103.0
X201.5Y-105.5
T5
X122.5Y-121.23
X122.5Y-123.77
X179.73Y-125.31
X182.0Y-112.0
X182.0Y-119.62
X182.27Y-125.31
X208.0Y-97.5
X208.0Y-99.5
X208.0Y-101.5
T6
X157.625Y-69.212
X162.125Y-69.212
X168.225Y-69.212
X172.725Y-69.212
X192.625Y-69.212
X197.125Y-69.212
X203.225Y-69.212
X207.725Y-69.212
T7
X130.5Y-136.81
X182.49Y-136.81
T8
X149.0Y-115.676
X149.0Y-120.676
X191.58Y-127.42
X191.58Y-137.58
T9
X156.375Y-71.703
X163.385Y-71.703
X166.975Y-71.703
X173.985Y-71.703
X191.375Y-71.703
X198.385Y-71.703
X201.975Y-71.703
X208.985Y-71.703
T10
X208.0Y-95.4
X208.0Y-103.6
T11
X200.3Y-117.25
X203.3Y-112.55
X206.3Y-117.25
M30
