%TF.GenerationSoftware,KiCad,Pcbnew,9.0.6*%
%TF.CreationDate,2025-12-08T10:20:45+01:00*%
%TF.ProjectId,8.12.2025,382e3132-2e32-4303-9235-2e6b69636164,rev?*%
%TF.SameCoordinates,Original*%
%TF.FileFunction,Drillmap*%
%TF.FilePolarity,Positive*%
%FSLAX45Y45*%
G04 Gerber Fmt 4.5, Leading zero omitted, Abs format (unit mm)*
G04 Created by KiCad (PCBNEW 9.0.6) date 2025-12-08 10:20:45*
%MOMM*%
%LPD*%
G01*
G04 APERTURE LIST*
%ADD10C,0.200000*%
%ADD11C,0.100000*%
G04 APERTURE END LIST*
D10*
X9950000Y-9350000D02*
X14550000Y-9350000D01*
X14550000Y-11750000D01*
X9950000Y-11750000D01*
X9950000Y-9350000D01*
D11*
X10336000Y-10234000D02*
X10366000Y-10264000D01*
X10366000Y-10234000D02*
X10336000Y-10264000D01*
X10961400Y-10111400D02*
X10991400Y-10141400D01*
X10991400Y-10111400D02*
X10961400Y-10141400D01*
X11085000Y-11335000D02*
X11115000Y-11365000D01*
X11115000Y-11335000D02*
X11085000Y-11365000D01*
X11385000Y-9635000D02*
X11415000Y-9665000D01*
X11415000Y-9635000D02*
X11385000Y-9665000D01*
X11394500Y-10235000D02*
X11424500Y-10265000D01*
X11424500Y-10235000D02*
X11394500Y-10265000D01*
X11885000Y-10835000D02*
X11915000Y-10865000D01*
X11915000Y-10835000D02*
X11885000Y-10865000D01*
X11885000Y-11335000D02*
X11915000Y-11365000D01*
X11915000Y-11335000D02*
X11885000Y-11365000D01*
X11985000Y-10035000D02*
X12015000Y-10065000D01*
X12015000Y-10035000D02*
X11985000Y-10065000D01*
X12035000Y-10431303D02*
X12065000Y-10461303D01*
X12065000Y-10431303D02*
X12035000Y-10461303D01*
X12335000Y-9935000D02*
X12365000Y-9965000D01*
X12365000Y-9935000D02*
X12335000Y-9965000D01*
X12635000Y-10835000D02*
X12665000Y-10865000D01*
X12665000Y-10835000D02*
X12635000Y-10865000D01*
X12848652Y-10471348D02*
X12878652Y-10501348D01*
X12878652Y-10471348D02*
X12848652Y-10501348D01*
X13435000Y-10335000D02*
X13465000Y-10365000D01*
X13465000Y-10335000D02*
X13435000Y-10365000D01*
D10*
X10200777Y-12071484D02*
X10200777Y-11871484D01*
X10200777Y-11871484D02*
X10248396Y-11871484D01*
X10248396Y-11871484D02*
X10276967Y-11881008D01*
X10276967Y-11881008D02*
X10296015Y-11900055D01*
X10296015Y-11900055D02*
X10305539Y-11919103D01*
X10305539Y-11919103D02*
X10315063Y-11957198D01*
X10315063Y-11957198D02*
X10315063Y-11985769D01*
X10315063Y-11985769D02*
X10305539Y-12023865D01*
X10305539Y-12023865D02*
X10296015Y-12042912D01*
X10296015Y-12042912D02*
X10276967Y-12061960D01*
X10276967Y-12061960D02*
X10248396Y-12071484D01*
X10248396Y-12071484D02*
X10200777Y-12071484D01*
X10400777Y-12071484D02*
X10400777Y-11938150D01*
X10400777Y-11976246D02*
X10410301Y-11957198D01*
X10410301Y-11957198D02*
X10419824Y-11947674D01*
X10419824Y-11947674D02*
X10438872Y-11938150D01*
X10438872Y-11938150D02*
X10457920Y-11938150D01*
X10524586Y-12071484D02*
X10524586Y-11938150D01*
X10524586Y-11871484D02*
X10515063Y-11881008D01*
X10515063Y-11881008D02*
X10524586Y-11890531D01*
X10524586Y-11890531D02*
X10534110Y-11881008D01*
X10534110Y-11881008D02*
X10524586Y-11871484D01*
X10524586Y-11871484D02*
X10524586Y-11890531D01*
X10648396Y-12071484D02*
X10629348Y-12061960D01*
X10629348Y-12061960D02*
X10619824Y-12042912D01*
X10619824Y-12042912D02*
X10619824Y-11871484D01*
X10753158Y-12071484D02*
X10734110Y-12061960D01*
X10734110Y-12061960D02*
X10724586Y-12042912D01*
X10724586Y-12042912D02*
X10724586Y-11871484D01*
X10981729Y-12071484D02*
X10981729Y-11871484D01*
X10981729Y-11871484D02*
X11048396Y-12014341D01*
X11048396Y-12014341D02*
X11115063Y-11871484D01*
X11115063Y-11871484D02*
X11115063Y-12071484D01*
X11296015Y-12071484D02*
X11296015Y-11966722D01*
X11296015Y-11966722D02*
X11286491Y-11947674D01*
X11286491Y-11947674D02*
X11267443Y-11938150D01*
X11267443Y-11938150D02*
X11229348Y-11938150D01*
X11229348Y-11938150D02*
X11210301Y-11947674D01*
X11296015Y-12061960D02*
X11276967Y-12071484D01*
X11276967Y-12071484D02*
X11229348Y-12071484D01*
X11229348Y-12071484D02*
X11210301Y-12061960D01*
X11210301Y-12061960D02*
X11200777Y-12042912D01*
X11200777Y-12042912D02*
X11200777Y-12023865D01*
X11200777Y-12023865D02*
X11210301Y-12004817D01*
X11210301Y-12004817D02*
X11229348Y-11995293D01*
X11229348Y-11995293D02*
X11276967Y-11995293D01*
X11276967Y-11995293D02*
X11296015Y-11985769D01*
X11391253Y-11938150D02*
X11391253Y-12138150D01*
X11391253Y-11947674D02*
X11410301Y-11938150D01*
X11410301Y-11938150D02*
X11448396Y-11938150D01*
X11448396Y-11938150D02*
X11467443Y-11947674D01*
X11467443Y-11947674D02*
X11476967Y-11957198D01*
X11476967Y-11957198D02*
X11486491Y-11976246D01*
X11486491Y-11976246D02*
X11486491Y-12033388D01*
X11486491Y-12033388D02*
X11476967Y-12052436D01*
X11476967Y-12052436D02*
X11467443Y-12061960D01*
X11467443Y-12061960D02*
X11448396Y-12071484D01*
X11448396Y-12071484D02*
X11410301Y-12071484D01*
X11410301Y-12071484D02*
X11391253Y-12061960D01*
X11572205Y-12052436D02*
X11581729Y-12061960D01*
X11581729Y-12061960D02*
X11572205Y-12071484D01*
X11572205Y-12071484D02*
X11562682Y-12061960D01*
X11562682Y-12061960D02*
X11572205Y-12052436D01*
X11572205Y-12052436D02*
X11572205Y-12071484D01*
X11572205Y-11947674D02*
X11581729Y-11957198D01*
X11581729Y-11957198D02*
X11572205Y-11966722D01*
X11572205Y-11966722D02*
X11562682Y-11957198D01*
X11562682Y-11957198D02*
X11572205Y-11947674D01*
X11572205Y-11947674D02*
X11572205Y-11966722D01*
D11*
X9910000Y-12385000D02*
X9940000Y-12415000D01*
X9940000Y-12385000D02*
X9910000Y-12415000D01*
D10*
X10238872Y-12291484D02*
X10257920Y-12291484D01*
X10257920Y-12291484D02*
X10276967Y-12301008D01*
X10276967Y-12301008D02*
X10286491Y-12310531D01*
X10286491Y-12310531D02*
X10296015Y-12329579D01*
X10296015Y-12329579D02*
X10305539Y-12367674D01*
X10305539Y-12367674D02*
X10305539Y-12415293D01*
X10305539Y-12415293D02*
X10296015Y-12453388D01*
X10296015Y-12453388D02*
X10286491Y-12472436D01*
X10286491Y-12472436D02*
X10276967Y-12481960D01*
X10276967Y-12481960D02*
X10257920Y-12491484D01*
X10257920Y-12491484D02*
X10238872Y-12491484D01*
X10238872Y-12491484D02*
X10219824Y-12481960D01*
X10219824Y-12481960D02*
X10210301Y-12472436D01*
X10210301Y-12472436D02*
X10200777Y-12453388D01*
X10200777Y-12453388D02*
X10191253Y-12415293D01*
X10191253Y-12415293D02*
X10191253Y-12367674D01*
X10191253Y-12367674D02*
X10200777Y-12329579D01*
X10200777Y-12329579D02*
X10210301Y-12310531D01*
X10210301Y-12310531D02*
X10219824Y-12301008D01*
X10219824Y-12301008D02*
X10238872Y-12291484D01*
X10391253Y-12472436D02*
X10400777Y-12481960D01*
X10400777Y-12481960D02*
X10391253Y-12491484D01*
X10391253Y-12491484D02*
X10381729Y-12481960D01*
X10381729Y-12481960D02*
X10391253Y-12472436D01*
X10391253Y-12472436D02*
X10391253Y-12491484D01*
X10467444Y-12291484D02*
X10591253Y-12291484D01*
X10591253Y-12291484D02*
X10524586Y-12367674D01*
X10524586Y-12367674D02*
X10553158Y-12367674D01*
X10553158Y-12367674D02*
X10572205Y-12377198D01*
X10572205Y-12377198D02*
X10581729Y-12386722D01*
X10581729Y-12386722D02*
X10591253Y-12405769D01*
X10591253Y-12405769D02*
X10591253Y-12453388D01*
X10591253Y-12453388D02*
X10581729Y-12472436D01*
X10581729Y-12472436D02*
X10572205Y-12481960D01*
X10572205Y-12481960D02*
X10553158Y-12491484D01*
X10553158Y-12491484D02*
X10496015Y-12491484D01*
X10496015Y-12491484D02*
X10476967Y-12481960D01*
X10476967Y-12481960D02*
X10467444Y-12472436D01*
X10715063Y-12291484D02*
X10734110Y-12291484D01*
X10734110Y-12291484D02*
X10753158Y-12301008D01*
X10753158Y-12301008D02*
X10762682Y-12310531D01*
X10762682Y-12310531D02*
X10772205Y-12329579D01*
X10772205Y-12329579D02*
X10781729Y-12367674D01*
X10781729Y-12367674D02*
X10781729Y-12415293D01*
X10781729Y-12415293D02*
X10772205Y-12453388D01*
X10772205Y-12453388D02*
X10762682Y-12472436D01*
X10762682Y-12472436D02*
X10753158Y-12481960D01*
X10753158Y-12481960D02*
X10734110Y-12491484D01*
X10734110Y-12491484D02*
X10715063Y-12491484D01*
X10715063Y-12491484D02*
X10696015Y-12481960D01*
X10696015Y-12481960D02*
X10686491Y-12472436D01*
X10686491Y-12472436D02*
X10676967Y-12453388D01*
X10676967Y-12453388D02*
X10667444Y-12415293D01*
X10667444Y-12415293D02*
X10667444Y-12367674D01*
X10667444Y-12367674D02*
X10676967Y-12329579D01*
X10676967Y-12329579D02*
X10686491Y-12310531D01*
X10686491Y-12310531D02*
X10696015Y-12301008D01*
X10696015Y-12301008D02*
X10715063Y-12291484D01*
X10905539Y-12291484D02*
X10924586Y-12291484D01*
X10924586Y-12291484D02*
X10943634Y-12301008D01*
X10943634Y-12301008D02*
X10953158Y-12310531D01*
X10953158Y-12310531D02*
X10962682Y-12329579D01*
X10962682Y-12329579D02*
X10972205Y-12367674D01*
X10972205Y-12367674D02*
X10972205Y-12415293D01*
X10972205Y-12415293D02*
X10962682Y-12453388D01*
X10962682Y-12453388D02*
X10953158Y-12472436D01*
X10953158Y-12472436D02*
X10943634Y-12481960D01*
X10943634Y-12481960D02*
X10924586Y-12491484D01*
X10924586Y-12491484D02*
X10905539Y-12491484D01*
X10905539Y-12491484D02*
X10886491Y-12481960D01*
X10886491Y-12481960D02*
X10876967Y-12472436D01*
X10876967Y-12472436D02*
X10867444Y-12453388D01*
X10867444Y-12453388D02*
X10857920Y-12415293D01*
X10857920Y-12415293D02*
X10857920Y-12367674D01*
X10857920Y-12367674D02*
X10867444Y-12329579D01*
X10867444Y-12329579D02*
X10876967Y-12310531D01*
X10876967Y-12310531D02*
X10886491Y-12301008D01*
X10886491Y-12301008D02*
X10905539Y-12291484D01*
X11057920Y-12491484D02*
X11057920Y-12358150D01*
X11057920Y-12377198D02*
X11067444Y-12367674D01*
X11067444Y-12367674D02*
X11086491Y-12358150D01*
X11086491Y-12358150D02*
X11115063Y-12358150D01*
X11115063Y-12358150D02*
X11134110Y-12367674D01*
X11134110Y-12367674D02*
X11143634Y-12386722D01*
X11143634Y-12386722D02*
X11143634Y-12491484D01*
X11143634Y-12386722D02*
X11153158Y-12367674D01*
X11153158Y-12367674D02*
X11172205Y-12358150D01*
X11172205Y-12358150D02*
X11200777Y-12358150D01*
X11200777Y-12358150D02*
X11219824Y-12367674D01*
X11219824Y-12367674D02*
X11229348Y-12386722D01*
X11229348Y-12386722D02*
X11229348Y-12491484D01*
X11324586Y-12491484D02*
X11324586Y-12358150D01*
X11324586Y-12377198D02*
X11334110Y-12367674D01*
X11334110Y-12367674D02*
X11353158Y-12358150D01*
X11353158Y-12358150D02*
X11381729Y-12358150D01*
X11381729Y-12358150D02*
X11400777Y-12367674D01*
X11400777Y-12367674D02*
X11410301Y-12386722D01*
X11410301Y-12386722D02*
X11410301Y-12491484D01*
X11410301Y-12386722D02*
X11419824Y-12367674D01*
X11419824Y-12367674D02*
X11438872Y-12358150D01*
X11438872Y-12358150D02*
X11467443Y-12358150D01*
X11467443Y-12358150D02*
X11486491Y-12367674D01*
X11486491Y-12367674D02*
X11496015Y-12386722D01*
X11496015Y-12386722D02*
X11496015Y-12491484D01*
X11886491Y-12281960D02*
X11715063Y-12539103D01*
X12143634Y-12291484D02*
X12162682Y-12291484D01*
X12162682Y-12291484D02*
X12181729Y-12301008D01*
X12181729Y-12301008D02*
X12191253Y-12310531D01*
X12191253Y-12310531D02*
X12200777Y-12329579D01*
X12200777Y-12329579D02*
X12210301Y-12367674D01*
X12210301Y-12367674D02*
X12210301Y-12415293D01*
X12210301Y-12415293D02*
X12200777Y-12453388D01*
X12200777Y-12453388D02*
X12191253Y-12472436D01*
X12191253Y-12472436D02*
X12181729Y-12481960D01*
X12181729Y-12481960D02*
X12162682Y-12491484D01*
X12162682Y-12491484D02*
X12143634Y-12491484D01*
X12143634Y-12491484D02*
X12124586Y-12481960D01*
X12124586Y-12481960D02*
X12115063Y-12472436D01*
X12115063Y-12472436D02*
X12105539Y-12453388D01*
X12105539Y-12453388D02*
X12096015Y-12415293D01*
X12096015Y-12415293D02*
X12096015Y-12367674D01*
X12096015Y-12367674D02*
X12105539Y-12329579D01*
X12105539Y-12329579D02*
X12115063Y-12310531D01*
X12115063Y-12310531D02*
X12124586Y-12301008D01*
X12124586Y-12301008D02*
X12143634Y-12291484D01*
X12296015Y-12472436D02*
X12305539Y-12481960D01*
X12305539Y-12481960D02*
X12296015Y-12491484D01*
X12296015Y-12491484D02*
X12286491Y-12481960D01*
X12286491Y-12481960D02*
X12296015Y-12472436D01*
X12296015Y-12472436D02*
X12296015Y-12491484D01*
X12429348Y-12291484D02*
X12448396Y-12291484D01*
X12448396Y-12291484D02*
X12467444Y-12301008D01*
X12467444Y-12301008D02*
X12476967Y-12310531D01*
X12476967Y-12310531D02*
X12486491Y-12329579D01*
X12486491Y-12329579D02*
X12496015Y-12367674D01*
X12496015Y-12367674D02*
X12496015Y-12415293D01*
X12496015Y-12415293D02*
X12486491Y-12453388D01*
X12486491Y-12453388D02*
X12476967Y-12472436D01*
X12476967Y-12472436D02*
X12467444Y-12481960D01*
X12467444Y-12481960D02*
X12448396Y-12491484D01*
X12448396Y-12491484D02*
X12429348Y-12491484D01*
X12429348Y-12491484D02*
X12410301Y-12481960D01*
X12410301Y-12481960D02*
X12400777Y-12472436D01*
X12400777Y-12472436D02*
X12391253Y-12453388D01*
X12391253Y-12453388D02*
X12381729Y-12415293D01*
X12381729Y-12415293D02*
X12381729Y-12367674D01*
X12381729Y-12367674D02*
X12391253Y-12329579D01*
X12391253Y-12329579D02*
X12400777Y-12310531D01*
X12400777Y-12310531D02*
X12410301Y-12301008D01*
X12410301Y-12301008D02*
X12429348Y-12291484D01*
X12686491Y-12491484D02*
X12572206Y-12491484D01*
X12629348Y-12491484D02*
X12629348Y-12291484D01*
X12629348Y-12291484D02*
X12610301Y-12320055D01*
X12610301Y-12320055D02*
X12591253Y-12339103D01*
X12591253Y-12339103D02*
X12572206Y-12348627D01*
X12876967Y-12491484D02*
X12762682Y-12491484D01*
X12819825Y-12491484D02*
X12819825Y-12291484D01*
X12819825Y-12291484D02*
X12800777Y-12320055D01*
X12800777Y-12320055D02*
X12781729Y-12339103D01*
X12781729Y-12339103D02*
X12762682Y-12348627D01*
X12991253Y-12377198D02*
X12972206Y-12367674D01*
X12972206Y-12367674D02*
X12962682Y-12358150D01*
X12962682Y-12358150D02*
X12953158Y-12339103D01*
X12953158Y-12339103D02*
X12953158Y-12329579D01*
X12953158Y-12329579D02*
X12962682Y-12310531D01*
X12962682Y-12310531D02*
X12972206Y-12301008D01*
X12972206Y-12301008D02*
X12991253Y-12291484D01*
X12991253Y-12291484D02*
X13029348Y-12291484D01*
X13029348Y-12291484D02*
X13048396Y-12301008D01*
X13048396Y-12301008D02*
X13057920Y-12310531D01*
X13057920Y-12310531D02*
X13067444Y-12329579D01*
X13067444Y-12329579D02*
X13067444Y-12339103D01*
X13067444Y-12339103D02*
X13057920Y-12358150D01*
X13057920Y-12358150D02*
X13048396Y-12367674D01*
X13048396Y-12367674D02*
X13029348Y-12377198D01*
X13029348Y-12377198D02*
X12991253Y-12377198D01*
X12991253Y-12377198D02*
X12972206Y-12386722D01*
X12972206Y-12386722D02*
X12962682Y-12396246D01*
X12962682Y-12396246D02*
X12953158Y-12415293D01*
X12953158Y-12415293D02*
X12953158Y-12453388D01*
X12953158Y-12453388D02*
X12962682Y-12472436D01*
X12962682Y-12472436D02*
X12972206Y-12481960D01*
X12972206Y-12481960D02*
X12991253Y-12491484D01*
X12991253Y-12491484D02*
X13029348Y-12491484D01*
X13029348Y-12491484D02*
X13048396Y-12481960D01*
X13048396Y-12481960D02*
X13057920Y-12472436D01*
X13057920Y-12472436D02*
X13067444Y-12453388D01*
X13067444Y-12453388D02*
X13067444Y-12415293D01*
X13067444Y-12415293D02*
X13057920Y-12396246D01*
X13057920Y-12396246D02*
X13048396Y-12386722D01*
X13048396Y-12386722D02*
X13029348Y-12377198D01*
X13143634Y-12291484D02*
X13143634Y-12329579D01*
X13219825Y-12291484D02*
X13219825Y-12329579D01*
X13515063Y-12567674D02*
X13505539Y-12558150D01*
X13505539Y-12558150D02*
X13486491Y-12529579D01*
X13486491Y-12529579D02*
X13476968Y-12510531D01*
X13476968Y-12510531D02*
X13467444Y-12481960D01*
X13467444Y-12481960D02*
X13457920Y-12434341D01*
X13457920Y-12434341D02*
X13457920Y-12396246D01*
X13457920Y-12396246D02*
X13467444Y-12348627D01*
X13467444Y-12348627D02*
X13476968Y-12320055D01*
X13476968Y-12320055D02*
X13486491Y-12301008D01*
X13486491Y-12301008D02*
X13505539Y-12272436D01*
X13505539Y-12272436D02*
X13515063Y-12262912D01*
X13696015Y-12491484D02*
X13581729Y-12491484D01*
X13638872Y-12491484D02*
X13638872Y-12291484D01*
X13638872Y-12291484D02*
X13619825Y-12320055D01*
X13619825Y-12320055D02*
X13600777Y-12339103D01*
X13600777Y-12339103D02*
X13581729Y-12348627D01*
X13762682Y-12291484D02*
X13886491Y-12291484D01*
X13886491Y-12291484D02*
X13819825Y-12367674D01*
X13819825Y-12367674D02*
X13848396Y-12367674D01*
X13848396Y-12367674D02*
X13867444Y-12377198D01*
X13867444Y-12377198D02*
X13876968Y-12386722D01*
X13876968Y-12386722D02*
X13886491Y-12405769D01*
X13886491Y-12405769D02*
X13886491Y-12453388D01*
X13886491Y-12453388D02*
X13876968Y-12472436D01*
X13876968Y-12472436D02*
X13867444Y-12481960D01*
X13867444Y-12481960D02*
X13848396Y-12491484D01*
X13848396Y-12491484D02*
X13791253Y-12491484D01*
X13791253Y-12491484D02*
X13772206Y-12481960D01*
X13772206Y-12481960D02*
X13762682Y-12472436D01*
X14124587Y-12491484D02*
X14124587Y-12291484D01*
X14210301Y-12491484D02*
X14210301Y-12386722D01*
X14210301Y-12386722D02*
X14200777Y-12367674D01*
X14200777Y-12367674D02*
X14181730Y-12358150D01*
X14181730Y-12358150D02*
X14153158Y-12358150D01*
X14153158Y-12358150D02*
X14134110Y-12367674D01*
X14134110Y-12367674D02*
X14124587Y-12377198D01*
X14334110Y-12491484D02*
X14315063Y-12481960D01*
X14315063Y-12481960D02*
X14305539Y-12472436D01*
X14305539Y-12472436D02*
X14296015Y-12453388D01*
X14296015Y-12453388D02*
X14296015Y-12396246D01*
X14296015Y-12396246D02*
X14305539Y-12377198D01*
X14305539Y-12377198D02*
X14315063Y-12367674D01*
X14315063Y-12367674D02*
X14334110Y-12358150D01*
X14334110Y-12358150D02*
X14362682Y-12358150D01*
X14362682Y-12358150D02*
X14381730Y-12367674D01*
X14381730Y-12367674D02*
X14391253Y-12377198D01*
X14391253Y-12377198D02*
X14400777Y-12396246D01*
X14400777Y-12396246D02*
X14400777Y-12453388D01*
X14400777Y-12453388D02*
X14391253Y-12472436D01*
X14391253Y-12472436D02*
X14381730Y-12481960D01*
X14381730Y-12481960D02*
X14362682Y-12491484D01*
X14362682Y-12491484D02*
X14334110Y-12491484D01*
X14515063Y-12491484D02*
X14496015Y-12481960D01*
X14496015Y-12481960D02*
X14486491Y-12462912D01*
X14486491Y-12462912D02*
X14486491Y-12291484D01*
X14667444Y-12481960D02*
X14648396Y-12491484D01*
X14648396Y-12491484D02*
X14610301Y-12491484D01*
X14610301Y-12491484D02*
X14591253Y-12481960D01*
X14591253Y-12481960D02*
X14581730Y-12462912D01*
X14581730Y-12462912D02*
X14581730Y-12386722D01*
X14581730Y-12386722D02*
X14591253Y-12367674D01*
X14591253Y-12367674D02*
X14610301Y-12358150D01*
X14610301Y-12358150D02*
X14648396Y-12358150D01*
X14648396Y-12358150D02*
X14667444Y-12367674D01*
X14667444Y-12367674D02*
X14676968Y-12386722D01*
X14676968Y-12386722D02*
X14676968Y-12405769D01*
X14676968Y-12405769D02*
X14581730Y-12424817D01*
X14753158Y-12481960D02*
X14772206Y-12491484D01*
X14772206Y-12491484D02*
X14810301Y-12491484D01*
X14810301Y-12491484D02*
X14829349Y-12481960D01*
X14829349Y-12481960D02*
X14838872Y-12462912D01*
X14838872Y-12462912D02*
X14838872Y-12453388D01*
X14838872Y-12453388D02*
X14829349Y-12434341D01*
X14829349Y-12434341D02*
X14810301Y-12424817D01*
X14810301Y-12424817D02*
X14781730Y-12424817D01*
X14781730Y-12424817D02*
X14762682Y-12415293D01*
X14762682Y-12415293D02*
X14753158Y-12396246D01*
X14753158Y-12396246D02*
X14753158Y-12386722D01*
X14753158Y-12386722D02*
X14762682Y-12367674D01*
X14762682Y-12367674D02*
X14781730Y-12358150D01*
X14781730Y-12358150D02*
X14810301Y-12358150D01*
X14810301Y-12358150D02*
X14829349Y-12367674D01*
X14905539Y-12567674D02*
X14915063Y-12558150D01*
X14915063Y-12558150D02*
X14934111Y-12529579D01*
X14934111Y-12529579D02*
X14943634Y-12510531D01*
X14943634Y-12510531D02*
X14953158Y-12481960D01*
X14953158Y-12481960D02*
X14962682Y-12434341D01*
X14962682Y-12434341D02*
X14962682Y-12396246D01*
X14962682Y-12396246D02*
X14953158Y-12348627D01*
X14953158Y-12348627D02*
X14943634Y-12320055D01*
X14943634Y-12320055D02*
X14934111Y-12301008D01*
X14934111Y-12301008D02*
X14915063Y-12272436D01*
X14915063Y-12272436D02*
X14905539Y-12262912D01*
M02*
