%TF.GenerationSoftware,KiCad,Pcbnew,9.0.6*%
%TF.CreationDate,2025-12-08T10:20:35+01:00*%
%TF.ProjectId,8.12.2025,382e3132-2e32-4303-9235-2e6b69636164,rev?*%
%TF.SameCoordinates,Original*%
%TF.FileFunction,Soldermask,Top*%
%TF.FilePolarity,Negative*%
%FSLAX46Y46*%
G04 Gerber Fmt 4.6, Leading zero omitted, Abs format (unit mm)*
G04 Created by KiCad (PCBNEW 9.0.6) date 2025-12-08 10:20:35*
%MOMM*%
%LPD*%
G01*
G04 APERTURE LIST*
G04 Aperture macros list*
%AMRoundRect*
0 Rectangle with rounded corners*
0 $1 Rounding radius*
0 $2 $3 $4 $5 $6 $7 $8 $9 X,Y pos of 4 corners*
0 Add a 4 corners polygon primitive as box body*
4,1,4,$2,$3,$4,$5,$6,$7,$8,$9,$2,$3,0*
0 Add four circle primitives for the rounded corners*
1,1,$1+$1,$2,$3*
1,1,$1+$1,$4,$5*
1,1,$1+$1,$6,$7*
1,1,$1+$1,$8,$9*
0 Add four rect primitives between the rounded corners*
20,1,$1+$1,$2,$3,$4,$5,0*
20,1,$1+$1,$4,$5,$6,$7,0*
20,1,$1+$1,$6,$7,$8,$9,0*
20,1,$1+$1,$8,$9,$2,$3,0*%
G04 Aperture macros list end*
%ADD10RoundRect,0.135000X-0.185000X0.135000X-0.185000X-0.135000X0.185000X-0.135000X0.185000X0.135000X0*%
%ADD11RoundRect,0.135000X0.185000X-0.135000X0.185000X0.135000X-0.185000X0.135000X-0.185000X-0.135000X0*%
%ADD12RoundRect,0.150000X0.825000X0.150000X-0.825000X0.150000X-0.825000X-0.150000X0.825000X-0.150000X0*%
%ADD13RoundRect,0.147500X-0.172500X0.147500X-0.172500X-0.147500X0.172500X-0.147500X0.172500X0.147500X0*%
%ADD14RoundRect,0.147500X0.147500X0.172500X-0.147500X0.172500X-0.147500X-0.172500X0.147500X-0.172500X0*%
%ADD15RoundRect,0.150000X-0.825000X-0.150000X0.825000X-0.150000X0.825000X0.150000X-0.825000X0.150000X0*%
%ADD16RoundRect,0.135000X0.135000X0.185000X-0.135000X0.185000X-0.135000X-0.185000X0.135000X-0.185000X0*%
%ADD17C,2.200000*%
%ADD18RoundRect,0.140000X-0.170000X0.140000X-0.170000X-0.140000X0.170000X-0.140000X0.170000X0.140000X0*%
%ADD19RoundRect,0.140000X0.140000X0.170000X-0.140000X0.170000X-0.140000X-0.170000X0.140000X-0.170000X0*%
%ADD20RoundRect,0.140000X-0.140000X-0.170000X0.140000X-0.170000X0.140000X0.170000X-0.140000X0.170000X0*%
%TA.AperFunction,ViaPad*%
%ADD21C,0.600000*%
%TD*%
%TA.AperFunction,Conductor*%
%ADD22C,0.200000*%
%TD*%
%TA.AperFunction,SMDPad,CuDef*%
%ADD23RoundRect,0.135000X-0.185000X0.135000X-0.185000X-0.135000X0.185000X-0.135000X0.185000X0.135000X0*%
%TD*%
%TA.AperFunction,SMDPad,CuDef*%
%ADD24RoundRect,0.135000X0.185000X-0.135000X0.185000X0.135000X-0.185000X0.135000X-0.185000X-0.135000X0*%
%TD*%
%TA.AperFunction,SMDPad,CuDef*%
%ADD25RoundRect,0.150000X0.825000X0.150000X-0.825000X0.150000X-0.825000X-0.150000X0.825000X-0.150000X0*%
%TD*%
%TA.AperFunction,SMDPad,CuDef*%
%ADD26RoundRect,0.147500X-0.172500X0.147500X-0.172500X-0.147500X0.172500X-0.147500X0.172500X0.147500X0*%
%TD*%
%TA.AperFunction,SMDPad,CuDef*%
%ADD27RoundRect,0.147500X0.147500X0.172500X-0.147500X0.172500X-0.147500X-0.172500X0.147500X-0.172500X0*%
%TD*%
%TA.AperFunction,SMDPad,CuDef*%
%ADD28RoundRect,0.150000X-0.825000X-0.150000X0.825000X-0.150000X0.825000X0.150000X-0.825000X0.150000X0*%
%TD*%
%TA.AperFunction,SMDPad,CuDef*%
%ADD29RoundRect,0.135000X0.135000X0.185000X-0.135000X0.185000X-0.135000X-0.185000X0.135000X-0.185000X0*%
%TD*%
%TA.AperFunction,SMDPad,CuDef*%
%ADD30RoundRect,0.140000X-0.170000X0.140000X-0.170000X-0.140000X0.170000X-0.140000X0.170000X0.140000X0*%
%TD*%
%TA.AperFunction,SMDPad,CuDef*%
%ADD31RoundRect,0.140000X0.140000X0.170000X-0.140000X0.170000X-0.140000X-0.170000X0.140000X-0.170000X0*%
%TD*%
%TA.AperFunction,SMDPad,CuDef*%
%ADD32RoundRect,0.140000X-0.140000X-0.170000X0.140000X-0.170000X0.140000X0.170000X-0.140000X0.170000X0*%
%TD*%
G04 APERTURE END LIST*
D10*
%TO.C,R1*%
X141500000Y-102000000D03*
X141500000Y-103020000D03*
%TD*%
D11*
%TO.C,R4*%
X129000000Y-111000000D03*
X129000000Y-112020000D03*
%TD*%
D12*
%TO.C,U2*%
X112025000Y-104405000D03*
X112025000Y-103135000D03*
X112025000Y-101865000D03*
X112025000Y-100595000D03*
X116975000Y-100595000D03*
X116975000Y-101865000D03*
X116975000Y-103135000D03*
X116975000Y-104405000D03*
%TD*%
D13*
%TO.C,D2*%
X123500000Y-111985000D03*
X123500000Y-111015000D03*
%TD*%
D14*
%TO.C,D1*%
X114515000Y-111500000D03*
X115485000Y-111500000D03*
%TD*%
D15*
%TO.C,U1*%
X131025000Y-103095000D03*
X131025000Y-104365000D03*
X131025000Y-105635000D03*
X131025000Y-106905000D03*
X135975000Y-106905000D03*
X135975000Y-105635000D03*
X135975000Y-104365000D03*
X135975000Y-103095000D03*
%TD*%
D11*
%TO.C,R7*%
X103000000Y-106020000D03*
X103000000Y-105000000D03*
%TD*%
%TO.C,R6*%
X123500000Y-106510000D03*
X123500000Y-105490000D03*
%TD*%
D16*
%TO.C,R5*%
X117510000Y-96500000D03*
X116490000Y-96500000D03*
%TD*%
D10*
%TO.C,R3*%
X103000000Y-96500000D03*
X103000000Y-97520000D03*
%TD*%
%TO.C,R2*%
X141500000Y-105990000D03*
X141500000Y-107010000D03*
%TD*%
D17*
%TO.C,H2*%
X143000000Y-115000000D03*
%TD*%
%TO.C,H1*%
X143000000Y-96000000D03*
%TD*%
D18*
%TO.C,C3*%
X103000000Y-101020000D03*
X103000000Y-101980000D03*
%TD*%
D19*
%TO.C,C2*%
X135980000Y-111000000D03*
X135020000Y-111000000D03*
%TD*%
D20*
%TO.C,C1*%
X106020000Y-110500000D03*
X106980000Y-110500000D03*
%TD*%
D21*
%TO.N,+12V*%
X134500000Y-103500000D03*
X128636516Y-104863484D03*
%TO.N,0V*%
X114095001Y-102500000D03*
X103510000Y-102490000D03*
X109764000Y-101264000D03*
%TO.N,Net-(U2-DIS)*%
X126500000Y-108500000D03*
X119000000Y-108500000D03*
%TO.N,0V*%
X123500000Y-99500000D03*
%TO.N,+12V*%
X120000000Y-100500000D03*
X120500000Y-104463032D03*
X119000000Y-113500000D03*
%TO.N,0V*%
X111000000Y-113500000D03*
%TO.N,OUT*%
X114000000Y-96500000D03*
%TD*%
D22*
%TO.N,+12V*%
X128636516Y-104863484D02*
X130000000Y-103500000D01*
X130000000Y-103500000D02*
X134500000Y-103500000D01*
%TO.N,0V*%
X103510000Y-102490000D02*
X114085001Y-102490000D01*
X114085001Y-102490000D02*
X114095001Y-102500000D01*
X109764000Y-101264000D02*
X118764000Y-101264000D01*
%TO.N,Net-(U2-DIS)*%
X119000000Y-108500000D02*
X126500000Y-108500000D01*
%TO.N,0V*%
X118764000Y-101264000D02*
X119000000Y-101028000D01*
X119000000Y-101028000D02*
X119000000Y-99500000D01*
X119000000Y-99500000D02*
X123500000Y-99500000D01*
%TO.N,+12V*%
X120500000Y-101000000D02*
X120000000Y-100500000D01*
X120500000Y-104463032D02*
X120500000Y-101000000D01*
%TD*%
D23*
%TO.P,R1,1*%
%TO.N,+12V*%
X141500000Y-102000000D03*
%TO.P,R1,2*%
%TO.N,Net-(U1-DIS)*%
X141500000Y-103020000D03*
%TD*%
D24*
%TO.P,R4,2*%
%TO.N,Net-(U2-DIS)*%
X129000000Y-111000000D03*
%TO.P,R4,1*%
%TO.N,+12V*%
X129000000Y-112020000D03*
%TD*%
D25*
%TO.P,U2,8,VCC*%
%TO.N,+12V*%
X112025000Y-104405000D03*
%TO.P,U2,7,DIS*%
%TO.N,Net-(U2-DIS)*%
X112025000Y-103135000D03*
%TO.P,U2,6,THR*%
%TO.N,Net-(U2-THR)*%
X112025000Y-101865000D03*
%TO.P,U2,5,CV*%
%TO.N,Net-(U2-CV)*%
X112025000Y-100595000D03*
%TO.P,U2,4,R*%
%TO.N,+12V*%
X116975000Y-100595000D03*
%TO.P,U2,3,Q*%
%TO.N,Net-(U2-Q)*%
X116975000Y-101865000D03*
%TO.P,U2,2,TR*%
%TO.N,Net-(U2-THR)*%
X116975000Y-103135000D03*
%TO.P,U2,1,GND*%
%TO.N,0V*%
X116975000Y-104405000D03*
%TD*%
D26*
%TO.P,D2,2,A*%
%TO.N,+12V*%
X123500000Y-111985000D03*
%TO.P,D2,1,K*%
%TO.N,Net-(D2-K)*%
X123500000Y-111015000D03*
%TD*%
D27*
%TO.P,D1,2,A*%
%TO.N,0V*%
X114515000Y-111500000D03*
%TO.P,D1,1,K*%
%TO.N,+12V*%
X115485000Y-111500000D03*
%TD*%
D28*
%TO.P,U1,1,GND*%
%TO.N,0V*%
X131025000Y-103095000D03*
%TO.P,U1,2,TR*%
%TO.N,Net-(U1-THR)*%
X131025000Y-104365000D03*
%TO.P,U1,3,Q*%
%TO.N,Net-(U1-Q)*%
X131025000Y-105635000D03*
%TO.P,U1,4,R*%
%TO.N,+12V*%
X131025000Y-106905000D03*
%TO.P,U1,5,CV*%
%TO.N,Net-(U1-CV)*%
X135975000Y-106905000D03*
%TO.P,U1,6,THR*%
%TO.N,Net-(U1-THR)*%
X135975000Y-105635000D03*
%TO.P,U1,7,DIS*%
%TO.N,Net-(U1-DIS)*%
X135975000Y-104365000D03*
%TO.P,U1,8,VCC*%
%TO.N,+12V*%
X135975000Y-103095000D03*
%TD*%
D24*
%TO.P,R7,1*%
%TO.N,Net-(U1-THR)*%
X103000000Y-106020000D03*
%TO.P,R7,2*%
%TO.N,Net-(U2-CV)*%
X103000000Y-105000000D03*
%TD*%
%TO.P,R6,1*%
%TO.N,Net-(D2-K)*%
X123500000Y-106510000D03*
%TO.P,R6,2*%
%TO.N,Net-(U1-Q)*%
X123500000Y-105490000D03*
%TD*%
D29*
%TO.P,R5,1*%
%TO.N,Net-(U2-Q)*%
X117510000Y-96500000D03*
%TO.P,R5,2*%
%TO.N,OUT*%
X116490000Y-96500000D03*
%TD*%
D23*
%TO.P,R3,1*%
%TO.N,Net-(U2-DIS)*%
X103000000Y-96500000D03*
%TO.P,R3,2*%
%TO.N,Net-(U2-THR)*%
X103000000Y-97520000D03*
%TD*%
%TO.P,R2,1*%
%TO.N,Net-(U1-DIS)*%
X141500000Y-105990000D03*
%TO.P,R2,2*%
%TO.N,Net-(U1-THR)*%
X141500000Y-107010000D03*
%TD*%
D30*
%TO.P,C3,1*%
%TO.N,Net-(U2-THR)*%
X103000000Y-101020000D03*
%TO.P,C3,2*%
%TO.N,0V*%
X103000000Y-101980000D03*
%TD*%
D31*
%TO.P,C2,1*%
%TO.N,Net-(U1-CV)*%
X135980000Y-111000000D03*
%TO.P,C2,2*%
%TO.N,0V*%
X135020000Y-111000000D03*
%TD*%
D32*
%TO.P,C1,1*%
%TO.N,Net-(U1-THR)*%
X106020000Y-110500000D03*
%TO.P,C1,2*%
%TO.N,0V*%
X106980000Y-110500000D03*
%TD*%
D21*
%TO.N,+12V*%
X134500000Y-103500000D03*
X128636516Y-104863484D03*
%TO.N,0V*%
X114095001Y-102500000D03*
X103510000Y-102490000D03*
X109764000Y-101264000D03*
%TO.N,Net-(U2-DIS)*%
X126500000Y-108500000D03*
X119000000Y-108500000D03*
%TO.N,0V*%
X123500000Y-99500000D03*
%TO.N,+12V*%
X120000000Y-100500000D03*
X120500000Y-104463032D03*
X119000000Y-113500000D03*
%TO.N,0V*%
X111000000Y-113500000D03*
%TO.N,OUT*%
X114000000Y-96500000D03*
%TD*%
D22*
%TO.N,+12V*%
X134905000Y-103095000D02*
X134500000Y-103500000D01*
X135975000Y-103095000D02*
X134905000Y-103095000D01*
%TO.N,0V*%
X103510000Y-102490000D02*
X103520000Y-102500000D01*
X123500000Y-99500000D02*
X124000000Y-99000000D01*
%TO.N,+12V*%
X120000000Y-100500000D02*
X119500000Y-100500000D01*
X119500000Y-100500000D02*
X119405000Y-100595000D01*
X119405000Y-100595000D02*
X116975000Y-100595000D01*
X119000000Y-113500000D02*
X120500000Y-112000000D01*
X124368032Y-100595000D02*
X120500000Y-104463032D01*
X120500000Y-104463032D02*
X120500000Y-112000000D01*
%TO.N,0V*%
X116975000Y-104405000D02*
X118595000Y-104405000D01*
X118595000Y-104405000D02*
X123500000Y-99500000D01*
X124000000Y-99000000D02*
X125000000Y-99000000D01*
X125000000Y-99000000D02*
X129095000Y-103095000D01*
X129095000Y-103095000D02*
X131025000Y-103095000D01*
%TO.N,Net-(U2-Q)*%
X121000000Y-101000000D02*
X120000000Y-102000000D01*
X117510000Y-96500000D02*
X119000000Y-96500000D01*
X121000000Y-98500000D02*
X121000000Y-101000000D01*
X119000000Y-96500000D02*
X121000000Y-98500000D01*
X120000000Y-102000000D02*
X117110000Y-102000000D01*
X117110000Y-102000000D02*
X116975000Y-101865000D01*
%TO.N,+12V*%
X135975000Y-103095000D02*
X140405000Y-103095000D01*
X140405000Y-103095000D02*
X141500000Y-102000000D01*
X124368032Y-100595000D02*
X128636516Y-104863484D01*
%TO.N,Net-(U1-CV)*%
X138000000Y-108000000D02*
X138000000Y-107000000D01*
X135980000Y-111000000D02*
X135980000Y-110020000D01*
X135980000Y-110020000D02*
X138000000Y-108000000D01*
X138000000Y-107000000D02*
X137905000Y-106905000D01*
X137905000Y-106905000D02*
X135975000Y-106905000D01*
%TO.N,0V*%
X141000000Y-109000000D02*
X138000000Y-112000000D01*
X142000000Y-109000000D02*
X141000000Y-109000000D01*
X133620000Y-100500000D02*
X144000000Y-100500000D01*
X131025000Y-103095000D02*
X133620000Y-100500000D01*
X136020000Y-112000000D02*
X135020000Y-111000000D01*
X144000000Y-100500000D02*
X144000000Y-107000000D01*
X144000000Y-107000000D02*
X142000000Y-109000000D01*
X138000000Y-112000000D02*
X136020000Y-112000000D01*
%TO.N,Net-(U1-THR)*%
X131025000Y-104365000D02*
X133730000Y-104365000D01*
X133730000Y-104365000D02*
X134365000Y-105000000D01*
X134365000Y-105000000D02*
X134365000Y-105635000D01*
X141500000Y-107010000D02*
X140125000Y-105635000D01*
X140125000Y-105635000D02*
X135975000Y-105635000D01*
%TO.N,Net-(U1-DIS)*%
X141500000Y-103020000D02*
X141500000Y-105990000D01*
X135975000Y-104365000D02*
X140155000Y-104365000D01*
X140155000Y-104365000D02*
X141500000Y-103020000D01*
%TO.N,Net-(U1-THR)*%
X106020000Y-110500000D02*
X106020000Y-112020000D01*
X106020000Y-112020000D02*
X108101000Y-114101000D01*
X108101000Y-114101000D02*
X130899000Y-114101000D01*
X130899000Y-114101000D02*
X131500000Y-113500000D01*
X131500000Y-113500000D02*
X131500000Y-110500000D01*
X131500000Y-110500000D02*
X133500000Y-108500000D01*
X133500000Y-108500000D02*
X133500000Y-106500000D01*
X133500000Y-106500000D02*
X134365000Y-105635000D01*
X134365000Y-105635000D02*
X135975000Y-105635000D01*
%TO.N,Net-(U1-Q)*%
X123500000Y-105490000D02*
X127490000Y-105490000D01*
X127490000Y-105490000D02*
X130000000Y-108000000D01*
X130000000Y-108000000D02*
X132500000Y-108000000D01*
X132500000Y-108000000D02*
X133000000Y-107500000D01*
X133000000Y-107500000D02*
X133000000Y-105500000D01*
X133000000Y-105500000D02*
X131160000Y-105500000D01*
X131160000Y-105500000D02*
X131025000Y-105635000D01*
X123500000Y-105490000D02*
X123500000Y-105500000D01*
%TO.N,Net-(D2-K)*%
X123500000Y-106510000D02*
X123500000Y-111015000D01*
%TO.N,+12V*%
X128636516Y-104863484D02*
X130678032Y-106905000D01*
X130678032Y-106905000D02*
X131025000Y-106905000D01*
X115485000Y-111500000D02*
X115485000Y-107865000D01*
X115485000Y-107865000D02*
X112025000Y-104405000D01*
%TO.N,0V*%
X106980000Y-110500000D02*
X106980000Y-103536000D01*
X104000000Y-95500000D02*
X109764000Y-101264000D01*
X106980000Y-103536000D02*
X101968900Y-103536000D01*
X101968900Y-103536000D02*
X101500000Y-103067100D01*
X101500000Y-96000000D02*
X102000000Y-95500000D01*
X101500000Y-103067100D02*
X101500000Y-96000000D01*
X102000000Y-95500000D02*
X104000000Y-95500000D01*
X103000000Y-101980000D02*
X103510000Y-102490000D01*
X114095001Y-102500000D02*
X116000001Y-104405000D01*
X116000001Y-104405000D02*
X116975000Y-104405000D01*
%TO.N,Net-(U1-THR)*%
X103000000Y-106020000D02*
X103000000Y-107480000D01*
X103000000Y-107480000D02*
X106020000Y-110500000D01*
%TO.N,Net-(U2-CV)*%
X110000000Y-100000000D02*
X110000000Y-100500000D01*
X105000000Y-95000000D02*
X110000000Y-100000000D01*
X101500000Y-95000000D02*
X105000000Y-95000000D01*
X110000000Y-100500000D02*
X110095000Y-100595000D01*
X101500000Y-105000000D02*
X101000000Y-104500000D01*
X103000000Y-105000000D02*
X101500000Y-105000000D01*
X101000000Y-104500000D02*
X101000000Y-95500000D01*
X101000000Y-95500000D02*
X101500000Y-95000000D01*
X110095000Y-100595000D02*
X112025000Y-100595000D01*
%TO.N,Net-(U2-DIS)*%
X102135000Y-103135000D02*
X102000000Y-103000000D01*
X102000000Y-97500000D02*
X103000000Y-96500000D01*
X112025000Y-103135000D02*
X102135000Y-103135000D01*
X102000000Y-103000000D02*
X102000000Y-97500000D01*
%TO.N,Net-(U2-THR)*%
X116975000Y-103135000D02*
X116000001Y-103135000D01*
X116000001Y-103135000D02*
X114730001Y-101865000D01*
X114730001Y-101865000D02*
X112025000Y-101865000D01*
X103000000Y-101020000D02*
X103845000Y-101865000D01*
X103845000Y-101865000D02*
X112025000Y-101865000D01*
X103000000Y-101020000D02*
X103000000Y-97520000D01*
%TO.N,Net-(U2-DIS)*%
X129000000Y-111000000D02*
X126500000Y-108500000D01*
X119000000Y-108500000D02*
X113635000Y-103135000D01*
X113635000Y-103135000D02*
X112025000Y-103135000D01*
%TO.N,+12V*%
X123500000Y-111985000D02*
X128965000Y-111985000D01*
X128965000Y-111985000D02*
X129000000Y-112020000D01*
%TO.N,0V*%
X111000000Y-113500000D02*
X109980000Y-113500000D01*
X109980000Y-113500000D02*
X106980000Y-110500000D01*
X114515000Y-111500000D02*
X113000000Y-111500000D01*
X113000000Y-111500000D02*
X111000000Y-113500000D01*
%TO.N,+12V*%
X120500000Y-112000000D02*
X120515000Y-111985000D01*
X120515000Y-111985000D02*
X123500000Y-111985000D01*
X115485000Y-111500000D02*
X117000000Y-111500000D01*
X117000000Y-111500000D02*
X119000000Y-113500000D01*
%TO.N,OUT*%
X116490000Y-96500000D02*
X114000000Y-96500000D01*
%TO.N,Net-(U1-CV)*%
X135980000Y-106910000D02*
X135975000Y-106905000D01*
%TO.N,+12V*%
X128995000Y-111985000D02*
X129000000Y-111990000D01*
%TD*%
M02*
